<?xml version="1.0" encoding="UTF-8" standalone="no"?>
<svg
   height="24"
   version="1.1"
   width="24"
   id="svg8"
   sodipodi:docname="map_icon_yellow.svg"
   inkscape:version="1.2.2 (732a01da63, 2022-12-09)"
   xmlns:inkscape="http://www.inkscape.org/namespaces/inkscape"
   xmlns:sodipodi="http://sodipodi.sourceforge.net/DTD/sodipodi-0.dtd"
   xmlns="http://www.w3.org/2000/svg"
   xmlns:svg="http://www.w3.org/2000/svg">
  <defs
     id="defs12" />
  <sodipodi:namedview
     id="namedview10"
     pagecolor="#ffffff"
     bordercolor="#000000"
     borderopacity="0.25"
     inkscape:showpageshadow="2"
     inkscape:pageopacity="0.0"
     inkscape:pagecheckerboard="0"
     inkscape:deskcolor="#d1d1d1"
     showgrid="false"
     inkscape:zoom="24.954977"
     inkscape:cx="10.058114"
     inkscape:cy="9.8577531"
     inkscape:window-width="1920"
     inkscape:window-height="1027"
     inkscape:window-x="227"
     inkscape:window-y="-8"
     inkscape:window-maximized="1"
     inkscape:current-layer="svg8" />
  <g
     transform="translate(0 -1028.4)"
     id="g6">
    <path
       d="m12.031 1030.4c-3.8657 0-6.9998 3.1-6.9998 7 0 1.3 0.4017 2.6 1.0938 3.7 0.0334 0.1 0.059 0.1 0.0938 0.2l4.3432 8c0.204 0.6 0.782 1.1 1.438 1.1s1.202-0.5 1.406-1.1l4.844-8.7c0.499-1 0.781-2.1 0.781-3.2 0-3.9-3.134-7-7-7zm-0.031 3.9c1.933 0 3.5 1.6 3.5 3.5 0 2-1.567 3.5-3.5 3.5s-3.5-1.5-3.5-3.5c0-1.9 1.567-3.5 3.5-3.5z"
       fill="#c0392b"
       id="path2"
       style="fill:#c09f2b;fill-opacity:1" />
    <text
       xml:space="preserve"
       style="font-weight:normal;font-size:21.3333px;font-family:SansSerif;-inkscape-font-specification:SansSerif;fill:#c09f2b;fill-opacity:1;stroke:#000000;stroke-width:5;stroke-linecap:round;font-style:normal;font-stretch:normal;font-variant:normal"
       x="20.486423"
       y="1043.7294"
       id="text1000"><tspan
         sodipodi:role="line"
         id="tspan998"
         x="20.486423"
         y="1043.7294" /></text>
    <text
       xml:space="preserve"
       style="font-style:normal;font-variant:normal;font-weight:normal;font-stretch:normal;font-size:21.3333px;font-family:SansSerif;-inkscape-font-specification:SansSerif;fill:#c09f2b;fill-opacity:1;stroke:#000000;stroke-width:5;stroke-linecap:round"
       x="20.883118"
       y="1032.537"
       id="text1054"><tspan
         sodipodi:role="line"
         id="tspan1052"></tspan></text>
  </g>
  <path
     d="m 12.031,1.0312 c -3.8657,0 -6.9998,3.134 -6.9998,7 0,1.383 0.4017,2.6648 1.0938,3.7498 0.0334,0.053 0.059,0.105 0.0938,0.157 L 10.562,20 c 0.204,0.586 0.782,1.031 1.438,1.031 0.656,0 1.202,-0.445 1.406,-1.031 l 4.844,-8.75 c 0.499,-0.963 0.781,-2.06 0.781,-3.2188 0,-3.866 -3.134,-7 -7,-7 z m 0.167347,6.8306654 c 1.933,0 0,-1.933 0,0 0,1.933 1.933,0 0,0 -1.933,0 0,1.933 0,0 0,-1.933 -1.933,0 0,0 z"
     fill="#e74c3c"
     id="path4"
     sodipodi:nodetypes="sscccsccsssssss"
     style="fill:#eef108;fill-opacity:1" />
  <text
     xml:space="preserve"
     style="font-style:normal;font-variant:normal;font-weight:normal;font-stretch:normal;font-size:8.29084px;font-family:'Artifakt Element';-inkscape-font-specification:'Artifakt Element';fill:#c09f2b;fill-opacity:1;stroke:#000000;stroke-width:1.22035;stroke-linecap:round"
     x="10.852433"
     y="10.398822"
     id="text1111"
     transform="scale(0.84495155,1.1834998)"><tspan
       sodipodi:role="line"
       id="tspan1109"
       x="10.852433"
       y="10.398822"
       style="font-style:normal;font-variant:normal;font-weight:300;font-stretch:normal;font-size:8.29084px;font-family:Corbel;-inkscape-font-specification:'Corbel Light';stroke-width:1.22035">M</tspan></text>
</svg>
